<svg id="Layer_1" data-name="Layer 1" xmlns="http://www.w3.org/2000/svg" xmlns:xlink="http://www.w3.org/1999/xlink" viewBox="0 0 648.97 835.37"><defs><style>.cls-1{stroke:#993a85;stroke-miterlimit:22.93;stroke-width:0.3px;fill-rule:evenodd;fill:url(#GradientFill_1);}</style><linearGradient id="GradientFill_1" x1="529.07" y1="787.32" x2="529.07" y2="130.96" gradientUnits="userSpaceOnUse"><stop offset="0" stop-color="#7d236c"/><stop offset="1" stop-color="#c370ae"/></linearGradient></defs><path class="cls-1" d="M709.57,273.23c-3.17,10.56-10,13.58-17.27,22.31-6.24,7.55-11.52,14.95-17.19,22.51-31.79,42.31-84.43,117.53-62,170,21.29,49.76,37.2,63.61,12,123.82-15,35.8-42.57,67.42-66.5,98.45l-1.4-.07c-5.93-2.23-12.92-2.45-18.7-1.83a113.55,113.55,0,0,0-26.33,6.39c-23.66,6.36-40.48,16.39-71.07,13.23-63.9-7.91-98.07-51.18-170.69-26.76l-2.82.09c6-16.78,64.69-97.92,78.83-117,25.06-33.84,56.49-81.82,97.06-101.23,23.21-11.1,57.49-16.51,78,1.5,59.32,52.15-27.63,126.79-42.88,90.52-5.24-12.46-1.26-31.32,3.84-42.68,6.79-15.1,4.82-2.35,17.87-32-32.87,6.72-55.18,81.23-20.66,97.62,37,17.59,81.84-31.54,84.13-63.52,5.9-82.57-91.6-112.55-175.51-22.09-29,31.29-110,133-134.22,169.92-61,92.85-74.47,126.28,12.14,195,23.47,18.64,67.45,53.86,99.42,52,54.76-3.2,126.86-105.28,157-150.42,20.47-30.65,43.06-59.5,64.42-88.95,28.52-39.34,79.59-104.1,54.58-166.9-22.48-56.44-49.08-56,18.51-162,26.49-41.56,34.82-49,65.49-84l-.2-.06,2.32-2.47s-4-5.37-8.9-10.58-17.13-12.27-17.13-12.27,11.08-.16,13.1.17c4.69.78,6.33,11.2,23,9.91,4.37-.33,15.9-4.64,18.75-12.2,7.49-19.83-8.31-28.63-17.4-33.82-6.09-3.48.19-13.07,6.89-15.46,5.66-2,15.8,13.2,25,13.69,3.19.17,6.89.17,9.07-4.87,4.69-10.81-15.89-21.48-24.52-24a11.62,11.62,0,0,1,4.2-7.06c3.52-2.52,43.68-8.73,43.68-8.73L805,111.22s1.68-1.68,9.07-3.11,14.7,10.08,16.38,12.43c2.14,3-7,19.58-7.39,25.37-.34,4.87,3.52,9.24,12.09,10.24,5.18.61,10.1-3.11,13.14-8.22,10.83-18.18,4-44.19-16.33-51.41-12.59-4.47-27.22-1.31-37.8,6.21L794,163.65s-8.86.57-29.35,5.27c-8.45,1.94-13.21,3.88-15.9,5.49-7,4.22-.31,10.71-6.78,12.15-13.61,3-18.54,18.85-18.48,31.92,0,2.82-17-2.39-15.79,22.85-7.39-.31-37.55-5.78-40.52-.37-4.43,8.08,36.69,28.7,40.42,31l2,1.24Zm-154.46,442c-9,14.81-18.78,28.21-29.43,43.14-39.19,54.93-121.13,192.28-191.61,154.2-27.29-14.74-61-41.2-82-60.79-30.51-28.51-41.29-51.34-16.83-98.28,20.06-38.52,31.42-61.64,89.15-53.84,42,5.68,72.48,26.8,113.09,32.74,50.78,7.42,79.15-28.37,117.6-17.17ZM724.52,228.14c7.88,9.58,6.9,9.1,19.48,15,0,0-17.3.34-20.49,0C719,242.62,715.69,233.39,724.52,228.14Z" transform="translate(-204.58 -94.31)"/></svg>